<svg xmlns="http://www.w3.org/2000/svg" viewBox="0 0 400.9 67.46"><defs><style>.cls-1{fill:#231f20;}</style></defs><g id="Layer_2" data-name="Layer 2"><g id="Layer_1-2" data-name="Layer 1"><path d="M31.85,0V9.09H10.35v10H30.79V28.2H10.35V46.38H0V0Z"/><path d="M53.88,0H64.23V46.38H53.88Z"/><path d="M108.55,9V46.38H98.2V9H85.06V0h36.63V9Z"/><path d="M178,6.07q6.65,6.07,6.64,16.89t-6.47,17.12q-6.47,6.3-19.74,6.3H142.52V0h16.39Q171.32,0,178,6.07Zm-7.59,27.57q3.81-3.59,3.81-10.42t-3.81-10.51Q166.54,9,158.65,9h-5.78v28.2h6.57C164.18,37.22,167.81,36,170.36,33.64Z"/><path class="cls-1" d="M206.82,0h10.35V46.38H206.82Z"/><path class="cls-1" d="M274.89,46.38l-4.31-10H251.14l-4.31,10h-11L255.85,0h10l20,46.38Zm-14-32.58-5.83,13.47h11.61Z"/><path d="M342.18,15.39q0,11.16-8.83,14.4l11.74,16.59H332.36l-10.29-14.8H314.9v14.8H304.55V0h17.59Q333,0,337.56,3.65T342.18,15.39ZM329.7,20.9c1.28-1.15,1.93-3,1.93-5.47s-.67-4.22-2-5.15-3.64-1.39-7-1.39H314.9V22.63h7.57Q327.78,22.63,329.7,20.9Z"/><path d="M384.84,46.38H374.49V28.07L358.43,0h11.22l10,17.25L389.68,0H400.9L384.84,28.07Z"/><path d="M56.88,58.21a4.3,4.3,0,0,1,1.31,3.33,4.51,4.51,0,0,1-1.28,3.38A5.38,5.38,0,0,1,53,66.16H49.89V57h3.23A5.36,5.36,0,0,1,56.88,58.21Zm-1.5,5.44a2.7,2.7,0,0,0,.75-2.06,2.75,2.75,0,0,0-.75-2.07,3.19,3.19,0,0,0-2.31-.73H51.93v5.56h1.3A3,3,0,0,0,55.38,63.65Z"/><path d="M71.79,57v1.82H67.23v1.89h4.1v1.74h-4.1v1.89h4.7v1.81H65.19V57Z"/><path d="M83.18,64.35a3,3,0,0,0,2.46-1.19L87,64.51a4.92,4.92,0,0,1-7.15.42,4.51,4.51,0,0,1-1.37-3.37,4.56,4.56,0,0,1,1.4-3.4,4.72,4.72,0,0,1,3.41-1.36A4.83,4.83,0,0,1,87,58.52L85.73,60a2.94,2.94,0,0,0-2.4-1.21,2.76,2.76,0,0,0-2,.76,2.59,2.59,0,0,0-.82,2,2.77,2.77,0,0,0,.77,2A2.54,2.54,0,0,0,83.18,64.35Z"/><path d="M93.8,57h2v9.15h-2Z"/><path d="M110.31,58.21a4.3,4.3,0,0,1,1.31,3.33,4.51,4.51,0,0,1-1.28,3.38,5.36,5.36,0,0,1-3.89,1.24h-3.13V57h3.24A5.35,5.35,0,0,1,110.31,58.21Zm-1.5,5.44a2.7,2.7,0,0,0,.76-2.06,2.76,2.76,0,0,0-.76-2.07,3.19,3.19,0,0,0-2.31-.73h-1.14v5.56h1.3A3,3,0,0,0,108.81,63.65Z"/><path d="M125.22,57v1.82h-4.56v1.89h4.1v1.74h-4.1v1.89h4.7v1.81h-6.74V57Z"/><path d="M132.48,66a1,1,0,0,1-.46-.85,1.12,1.12,0,0,1,.35-.85,1.18,1.18,0,0,1,.86-.34,1.21,1.21,0,0,1,.85.33,1,1,0,0,1,.36.76,2.14,2.14,0,0,1-.38,1.06l-.78,1.35H132Z"/><path d="M154.42,64.35a3,3,0,0,0,2.46-1.19l1.31,1.35a4.92,4.92,0,0,1-7.15.42,4.51,4.51,0,0,1-1.37-3.37,4.56,4.56,0,0,1,1.4-3.4,4.72,4.72,0,0,1,3.41-1.36,4.86,4.86,0,0,1,3.77,1.72L157,60a3,3,0,0,0-2.41-1.21,2.76,2.76,0,0,0-2,.76,2.59,2.59,0,0,0-.82,2,2.77,2.77,0,0,0,.77,2A2.54,2.54,0,0,0,154.42,64.35Z"/><path d="M172.54,64.9a5,5,0,0,1-6.84,0,4.8,4.8,0,0,1,0-6.74,5,5,0,0,1,6.84,0,4.8,4.8,0,0,1,0,6.74Zm-.7-3.37a3,3,0,0,0-.78-2.08,2.51,2.51,0,0,0-1.93-.87,2.48,2.48,0,0,0-1.93.87,3.13,3.13,0,0,0,0,4.16,2.47,2.47,0,0,0,1.93.86,2.5,2.5,0,0,0,1.93-.86A3,3,0,0,0,171.84,61.53Z"/><path d="M189.08,60.4l-2.48,5h-1.21l-2.46-5v5.76h-2.05V57h2.77L186,62l2.37-5h2.75v9.15h-2Z"/><path d="M206.8,60.4l-2.48,5h-1.21l-2.47-5v5.76h-2V57h2.76l2.36,5,2.37-5h2.75v9.15h-2Z"/><path d="M216.32,57h2v9.15h-2Z"/><path d="M229.72,58.78v7.38h-2V58.78h-2.59V57h7.22v1.77Z"/><path d="M239.11,66a1,1,0,0,1-.46-.85,1.09,1.09,0,0,1,.35-.85,1.18,1.18,0,0,1,.85-.34,1.23,1.23,0,0,1,.86.33,1,1,0,0,1,.36.76,2.14,2.14,0,0,1-.38,1.06l-.79,1.35h-1.29Z"/><path d="M259,58.84a.77.77,0,0,0-.3.64.73.73,0,0,0,.36.64,6.88,6.88,0,0,0,1.67.55,4.88,4.88,0,0,1,2,1,2.38,2.38,0,0,1,.72,1.87,2.49,2.49,0,0,1-.92,2,3.7,3.7,0,0,1-2.43.77,5.62,5.62,0,0,1-3.91-1.61l1.21-1.5a4.32,4.32,0,0,0,2.74,1.3,1.44,1.44,0,0,0,.88-.24.79.79,0,0,0,.32-.66.75.75,0,0,0-.34-.65,4.4,4.4,0,0,0-1.35-.49,5.88,5.88,0,0,1-2.33-1,2.31,2.31,0,0,1-.74-1.91,2.37,2.37,0,0,1,.93-2,3.81,3.81,0,0,1,2.34-.71,5.6,5.6,0,0,1,1.83.32,4.9,4.9,0,0,1,1.6.89l-1,1.49a4,4,0,0,0-2.46-.9A1.23,1.23,0,0,0,259,58.84Z"/><path d="M272.85,63.8a1.82,1.82,0,0,0,2.75,0,2.75,2.75,0,0,0,.5-1.74V57h2v5.12a4.09,4.09,0,0,1-1.1,3.06,4.25,4.25,0,0,1-5.63,0,4,4,0,0,1-1.11-3.05V57h2v5.05A2.69,2.69,0,0,0,272.85,63.8Z"/><path d="M289.7,64.35a3,3,0,0,0,2.46-1.19l1.3,1.35a4.92,4.92,0,0,1-7.15.42A4.51,4.51,0,0,1,285,61.56a4.55,4.55,0,0,1,1.39-3.4,4.72,4.72,0,0,1,3.41-1.36,4.85,4.85,0,0,1,3.77,1.72L292.25,60a3,3,0,0,0-2.41-1.21,2.78,2.78,0,0,0-2,.76,2.62,2.62,0,0,0-.82,2,2.77,2.77,0,0,0,.77,2A2.54,2.54,0,0,0,289.7,64.35Z"/><path d="M304.51,64.35A3,3,0,0,0,307,63.16l1.31,1.35a4.92,4.92,0,0,1-7.15.42,4.84,4.84,0,0,1,0-6.77,4.73,4.73,0,0,1,3.41-1.36,4.85,4.85,0,0,1,3.77,1.72L307.06,60a3,3,0,0,0-2.41-1.21,2.8,2.8,0,0,0-2,.76,2.61,2.61,0,0,0-.81,2,2.73,2.73,0,0,0,.77,2A2.52,2.52,0,0,0,304.51,64.35Z"/><path d="M321.72,57v1.82h-4.56v1.89h4.1v1.74h-4.1v1.89h4.7v1.81h-6.74V57Z"/><path d="M335.51,57v1.82H331v1.89h4.09v1.74H331v1.89h4.7v1.81h-6.74V57Z"/><path d="M349.7,58.21a4.3,4.3,0,0,1,1.3,3.33,4.51,4.51,0,0,1-1.27,3.38,5.38,5.38,0,0,1-3.89,1.24h-3.13V57h3.23A5.39,5.39,0,0,1,349.7,58.21Zm-1.5,5.44a2.7,2.7,0,0,0,.75-2.06,2.75,2.75,0,0,0-.75-2.07,3.19,3.19,0,0,0-2.31-.73h-1.14v5.56h1.3A3,3,0,0,0,348.2,63.65Z"/></g></g></svg>